<svg xmlns="http://www.w3.org/2000/svg" xmlns:xlink="http://www.w3.org/1999/xlink" viewBox="0 0 52 67.34"><defs><style>.cls-1{fill:url(#Безымянный_градиент);}.cls-2{fill:url(#Безымянный_градиент_2);}.cls-3{fill:url(#Безымянный_градиент_3);}.cls-4{fill:#fff;}</style><linearGradient id="Безымянный_градиент" x1="2.23" y1="63.39" x2="29.39" y2="20.65" gradientTransform="matrix(1, 0, 0, -1, 0, 90.67)" gradientUnits="userSpaceOnUse"><stop offset="0" stop-color="#dd6c30"/><stop offset="0.69" stop-color="#e4864f"/><stop offset="1" stop-color="#fbb773"/></linearGradient><linearGradient id="Безымянный_градиент_2" x1="21" y1="75.32" x2="48.16" y2="32.58" xlink:href="#Безымянный_градиент"/><linearGradient id="Безымянный_градиент_3" x1="11.28" y1="69.02" x2="37.45" y2="27.83" xlink:href="#Безымянный_градиент"/></defs><g id="Слой_1" data-name="Слой 1"><path class="cls-1" d="M12.21,22.34H0l6.47,4.12L6.38,53.33l.45,1.53.89,1.73,1.17,1.34,15.36,9.41v-5l-.09-.58-.36-.67-2-2.69-9.61-5.85Z"/><path class="cls-2" d="M43.11,57.74l-15.63,9.6V26.27l.09-1.15.27-1,.36-.67.81-.77.9-.38H52l-6.38,4.41V34L39.7,37.59V28.67h-6V56.3l5.93-3.84V45.17l5.92-3.55V53.71l-.36,1.15-.35.87L44,56.78Z"/><path class="cls-3" d="M22.37,22.34H15.18l2.58,2.2V48.63l4.61,3.93Z"/></g><g id="Слой_2" data-name="Слой 2"><path class="cls-4" d="M5.71,20.29V17.78h8.84l-5-12.31c7.29,2.06,11.93,3.07,7.22,8.32,3.75,2.93,5.46,2.61,7.72-1.71C19,10.42,21.48,6.7,26,0c4.59,6.47,7,10,1.62,12.42,2,3.78,3.58,4.5,7.59,1.37A4.34,4.34,0,0,1,33,10.26c-.25-2,5.37-4,9.46-4.79l-5,12.31h8.84v2.51Z"/></g><g id="Слой_3" data-name="Слой 3"><path class="cls-4" d="M22.86,53l-6.67-4.52V24.53L12.86,22h10Z"/></g></svg>